<svg width="35" height="35" xmlns="http://www.w3.org/2000/svg">

 <g>
  <title>background</title>
  <rect fill="none" id="canvas_background" height="37" width="37" y="-1" x="-1"/>
 </g>
 <g>
  <title>Layer 1</title>
  <path fill="#ffffff" stroke="null" id="svg_1" d="m24.914644,18.559234l-2.11847,0l0,4.23694l2.11847,0l0,-4.23694zm-4.23694,0l-2.11847,0l0,4.23694l2.11847,0l0,-4.23694zm4.23694,-6.35541l-2.11847,0l0,4.23694l2.11847,0l0,-4.23694zm4.23694,6.35541l-2.11847,0l0,4.23694l2.11847,0l0,-4.23694zm-8.47388,6.35541l-2.11847,0l0,4.23694l2.11847,0l0,-4.23694zm6.35541,-23.303169l-2.11847,0l0,4.23694l2.11847,0l0,-4.23694zm-16.947759,0l-2.11847,0l0,4.23694l2.11847,0l0,-4.23694zm19.066229,10.59235l-2.11847,0l0,4.23694l2.11847,0l0,-4.23694zm-8.47388,0l-2.11847,0l0,4.23694l2.11847,0l0,-4.23694zm-8.47388,12.710819l-2.11847,0l0,4.23694l2.11847,0l0,-4.23694zm-4.23694,-6.35541l-2.11847,0l0,4.23694l2.11847,0l0,-4.23694zm4.23694,0l-2.11847,0l0,4.23694l2.11847,0l0,-4.23694zm16.947759,-14.829289l0,4.23694l-6.35541,0l0,-4.23694l-10.59235,0l0,4.23694l-6.35541,0l0,-4.23694l-4.23694,0l0,29.658579l31.777049,0l0,-29.658579l-4.23694,0zm2.11847,27.540109l-27.540109,0l0,-21.184699l27.540109,0l0,21.184699zm-23.303169,-6.35541l-2.11847,0l0,4.23694l2.11847,0l0,-4.23694zm8.47388,-12.710819l-2.11847,0l0,4.23694l2.11847,0l0,-4.23694zm0,12.710819l-2.11847,0l0,4.23694l2.11847,0l0,-4.23694zm-4.23694,-12.710819l-2.11847,0l0,4.23694l2.11847,0l0,-4.23694zm4.23694,6.35541l-2.11847,0l0,4.23694l2.11847,0l0,-4.23694zm8.47388,6.35541l-2.11847,0l0,4.23694l2.11847,0l0,-4.23694z"/>
 </g>
</svg>