<?xml version="1.0" ?><svg enable-background="new 0 0 512 512" height="512px" id="Layer_1" version="1.1" viewBox="0 0 512 512" width="512px" xml:space="preserve" xmlns="http://www.w3.org/2000/svg" xmlns:xlink="http://www.w3.org/1999/xlink"><path d="M321.2,154.8H188.7c-19.3,0-35,15.7-35,35v132.5c0,19.3,15.7,35,35,35h132.5c19.3,0,35-15.7,35-35V189.8  C356.2,170.5,340.5,154.8,321.2,154.8z M310.2,228.4c0,0,3.3,34.9-19.5,59.6c-42.3,45.7-105.2,13.5-105.2,13.5  c27,0.9,41.9-10.7,41.9-10.7c-18.2-2.3-25.6-20.9-25.6-20.9c7.4,1.9,12.1,0,12.1,0c-20.5-7-22.3-28.9-22.3-28.9  c5.6,5.1,13.5,3.7,13.5,3.7c-19.5-13-12.1-41-12.1-41s26.5,31.7,61.4,31.2c0,0-3.3-21.3,14.4-31.2c17.2-9.5,30.5-1,35,7.1  c4.7-1,13-4.3,18.3-8.9c0.1,8.7-10,15.7-10,15.7c9.3-1.4,14.4-4.7,14.4-4.7C322.5,222.6,310.2,228.4,310.2,228.4z" fill="#231F20"/></svg>